<svg xmlns="http://www.w3.org/2000/svg" xmlns:xlink="http://www.w3.org/1999/xlink" version="1.1" id="Layer_1" x="0px" y="0px" width="100px" height="100px" viewBox="0 0 100 100" enable-background="new 0 0 100 100" xml:space="preserve">
<g id="XMLID_10_">
	<g>
		<path fill="#000000" d="M5.734,87.039V54.21L49.47,21.092L18.171,55.733v32.795C11.276,88.215,7.394,87.782,5.734,87.039z"/>
	</g>
	<g>
		<line fill="#000000" stroke="#231F20" x1="49.47" y1="21.092" x2="18.171" y2="55.733"/>
		<line fill="#000000" stroke="#231F20" x1="49.47" y1="21.092" x2="5.734" y2="54.21"/>
		<line fill="#000000" stroke="#231F20" x1="5.734" y1="54.21" x2="5.734" y2="87.039"/>
		<line fill="#000000" stroke="#231F20" x1="18.171" y1="55.733" x2="18.171" y2="88.528"/>
		<path fill="#000000" stroke="#231F20" d="M5.734,87.039c1.66,0.743,5.542,1.176,12.438,1.489"/>
	</g>
</g>
<g id="XMLID_9_">
	<g>
		<path fill="#000000" d="M95.621,86.115c-6.967,0.939-9.266,1.683-13.933,2.397V55.748L49.45,21.107l46.171,32.441V86.115z"/>
	</g>
	<g>
		<line fill="#000000" stroke="#231F20" x1="49.45" y1="21.107" x2="81.688" y2="55.748"/>
		<line fill="#000000" stroke="#231F20" x1="81.688" y1="55.748" x2="81.688" y2="88.513"/>
		<line fill="#000000" stroke="#231F20" x1="49.45" y1="21.107" x2="95.621" y2="53.548"/>
		<line fill="#000000" stroke="#231F20" x1="95.621" y1="53.548" x2="95.621" y2="86.115"/>
		<path fill="#000000" stroke="#231F20" d="M81.688,88.513c4.667-0.715,6.966-1.458,13.933-2.397"/>
	</g>
</g>
<g id="XMLID_8_">
	<g>
		<path fill="#000000" d="M49.823,21.655l13.901,35.371v32.915C49.038,90.703,36.8,89.926,36.8,89.905V56.793l12.238-34.891v-8.954    l-10.589-1.1L49.038,7.45V6.194h0.785V21.655z"/>
	</g>
	<g>
		<line fill="#000000" stroke="#231F20" x1="49.038" y1="7.45" x2="38.449" y2="11.849"/>
		<line fill="#000000" stroke="#231F20" x1="38.449" y1="11.849" x2="49.038" y2="12.948"/>
		<line fill="#000000" stroke="#231F20" x1="49.038" y1="12.948" x2="49.038" y2="21.902"/>
		<line fill="#000000" stroke="#231F20" x1="49.038" y1="7.45" x2="49.038" y2="6.194"/>
		<line fill="#000000" stroke="#231F20" x1="49.038" y1="6.194" x2="49.823" y2="6.194"/>
		<polyline fill="#000000" stroke="#231F20" points="49.823,6.194 49.823,21.655 49.823,21.902   "/>
		<line fill="#000000" stroke="#231F20" x1="49.038" y1="21.902" x2="36.8" y2="56.793"/>
		<line fill="#000000" stroke="#231F20" x1="36.8" y1="56.793" x2="36.8" y2="89.905"/>
		<line fill="#000000" stroke="#231F20" x1="63.725" y1="89.941" x2="63.725" y2="57.026"/>
		<line fill="#000000" stroke="#231F20" x1="63.725" y1="57.026" x2="49.823" y2="21.655"/>
		<path fill="#000000" stroke="#231F20" d="M36.8,89.905c0,0.021,12.238,0.798,26.925,0.036"/>
	</g>
</g>
</svg>